<?xml version="1.0" encoding="iso-8859-1"?>
<!-- Uploaded to: SVG Repo, www.svgrepo.com, Generator: SVG Repo Mixer Tools -->
<svg version="1.1" id="Layer_1" xmlns="http://www.w3.org/2000/svg" xmlns:xlink="http://www.w3.org/1999/xlink" 
	 viewBox="0 0 512 512" xml:space="preserve">
<polygon style="fill:#0079CE;" points="255.996,57.492 235.081,347.19 429.548,326.275 512,243.824 512,139.943 429.548,57.492 "/>
<g>
	<polygon style="fill:#288FD9;" points="0,139.943 0,243.824 82.452,326.275 256.004,347.19 256.004,57.492 82.452,57.492 	"/>
	<polygon style="fill:#288FD9;" points="245.547,432.677 245.547,348.104 512,369.019 512,411.762 	"/>
</g>
<g>
	<polygon style="fill:#8BCBF1;" points="0,411.762 0,369.019 255.996,348.104 255.996,432.677 	"/>
	<path style="fill:#8BCBF1;" d="M0,57.492v82.451c45.537,0,82.452-36.914,82.452-82.451l0,0C82.452,57.492,0,57.492,0,57.492z"/>
</g>
<g>
	<path style="fill:#288FD9;" d="M512,57.492v82.451c-45.537,0-82.452-36.914-82.452-82.451l0,0
		C429.548,57.492,512,57.492,512,57.492z"/>
	<path style="fill:#288FD9;" d="M512,326.275v-82.451c-45.537,0-82.452,36.915-82.452,82.451l0,0H512z"/>
</g>
<g>
	<path style="fill:#8BCBF1;" d="M0,326.275v-82.451c45.537,0,82.452,36.915,82.452,82.451l0,0H0z"/>
	<polygon style="fill:#8BCBF1;" points="256.004,454.505 235.089,433.723 256.004,411.762 512,411.762 512,454.505 	"/>
	<polygon style="fill:#8BCBF1;" points="256.004,369.019 235.089,348.104 256.004,326.275 512,326.275 512,369.019 	"/>
</g>
<g>
	<rect y="326.278" style="fill:#C7E5FF;" width="256" height="42.744"/>
	<rect y="411.761" style="fill:#C7E5FF;" width="256" height="42.744"/>
</g>
<path style="fill:#8BCBF1;" d="M209.642,111.411c-44.119,0.391-79.766,36.262-79.766,80.473l0,0
	c0,44.211,35.648,80.081,79.766,80.473l20.915-80.473L209.642,111.411z"/>
<path style="fill:#288FD9;" d="M302.35,111.411l-20.915,80.473l20.915,80.473c44.121-0.389,79.771-36.26,79.771-80.473l0,0
	C382.12,147.671,346.47,111.799,302.35,111.411z"/>
<polygon style="fill:#DFDFDF;" points="255.996,57.492 235.081,347.19 302.35,326.275 302.35,57.492 "/>
<polygon style="fill:#F1F1F1;" points="255.996,57.492 209.642,57.492 209.642,326.275 255.996,347.19 "/>
<polygon style="fill:#C1C1C1;" points="255.996,454.505 302.35,454.505 302.35,326.275 255.996,326.275 235.081,393.577 "/>
<rect x="209.638" y="326.278" style="fill:#DFDFDF;" width="46.352" height="128.23"/>
</svg>