<svg width="100" height="100" viewBox="0 0 100 100" fill="none" xmlns="http://www.w3.org/2000/svg">
<path d="M17.7296 92.7148L71.4437 67.8098L33.0629 29.429L8.15816 83.1194C7.801 83.9765 6.44387 87.429 10.1343 90.7148C14.1343 94.2623 16.8724 93.0719 17.7296 92.7148Z" fill="url(#paint0_linear_380_7704)"/>
<path d="M27.681 41.0237L23.681 49.7141C22.3953 52.8333 45.205 75.857 58.0858 73.9999L71.4429 67.8095C55.6096 75.1191 25.7286 45.2616 27.681 41.0237Z" fill="url(#paint1_linear_380_7704)"/>
<path d="M19.5871 58.5469L18.6585 60.5231L15.5157 67.2848C15.4919 69.9515 29.2299 83.6656 37.8252 83.3802L48.7301 78.3323C36.9204 80.3802 18.2299 61.4277 19.5871 58.5469Z" fill="url(#paint2_linear_380_7704)"/>
<path d="M8.41992 82.5966C9.5628 84.8824 15.158 90.4537 19.8009 91.7632L31.3247 86.4299L31.3961 86.3824C24.3009 89.6441 12.3009 77.5491 12.0866 74.7395L8.41992 82.5966Z" fill="url(#paint3_linear_380_7704)"/>
<path opacity="0.75" d="M17.7296 92.7148L71.4437 67.8098L33.0629 29.429L8.15816 83.1194C7.801 83.9765 6.44387 87.429 10.1343 90.7148C14.1343 94.2623 16.8724 93.0719 17.7296 92.7148Z" fill="url(#paint4_radial_380_7704)"/>
<path opacity="0.75" d="M17.7296 92.7148L71.4437 67.8098L33.0629 29.429L8.15816 83.1194C7.801 83.9765 6.44387 87.429 10.1343 90.7148C14.1343 94.2623 16.8724 93.0719 17.7296 92.7148Z" fill="url(#paint5_radial_380_7704)"/>
<path d="M51.4212 29.6187C50.7783 30.9282 49.5162 31.1187 48.5879 30.833L50.1116 27.8091C50.1116 27.8091 51.8258 28.1901 51.8737 27.071L51.945 28.6425L51.4212 29.6187Z" fill="url(#paint6_linear_380_7704)"/>
<path d="M55.682 12.9526C55.682 12.9526 56.777 12.4527 57.4674 11.0241C58.1582 9.59549 54.7532 6.90503 54.7532 6.90503L53.1582 9.69074C53.1582 9.69074 55.8486 11.4526 55.0153 12.0479C54.1582 12.6431 55.682 12.9526 55.682 12.9526Z" fill="url(#paint7_linear_380_7704)"/>
<path d="M83.5388 35.8579C84.0388 31.477 81.0863 30.0245 80.0151 30.1436C80.0151 30.1436 79.8243 28.715 81.7293 28.2627C82.9909 27.977 86.2055 30.8341 85.3722 34.0722L83.5388 35.8579Z" fill="url(#paint8_linear_380_7704)"/>
<path d="M71.8969 67.477C69.2302 70.1437 58.4681 63.6674 47.8252 53.0487C37.2062 42.4295 30.7301 31.6437 33.3967 28.977C36.0634 26.3104 46.8252 32.7866 57.4681 43.4058C68.0873 54.0487 74.5394 64.8103 71.8969 67.477Z" fill="url(#paint9_linear_380_7704)"/>
<path d="M70.9919 65.7141C68.9681 67.7378 59.3015 61.357 49.4206 51.4524C39.5396 41.5475 33.1349 31.9046 35.1587 29.8808C37.1825 27.857 46.849 34.238 56.7302 44.1428C66.611 54.0474 73.0156 63.6903 70.9919 65.7141Z" fill="url(#paint10_linear_380_7704)"/>
<path d="M57.4437 11.0249C57.4437 11.0249 56.2058 13.6677 56.0391 13.9534C55.4199 15.0011 53.6816 15.3582 50.5628 14.9297C47.4437 14.5011 46.5391 14.6677 46.3962 14.6916C46.2533 14.7392 44.4199 13.263 44.4199 13.263L44.5866 11.763C44.5866 11.763 45.0149 11.1916 46.4437 11.382C48.9912 11.763 56.4912 13.0249 57.4437 11.0249Z" fill="url(#paint11_linear_380_7704)"/>
<path d="M63.6345 55.2379C66.1345 52.3808 68.4678 54.6192 69.9436 52.5712L67.4199 50C65.9436 52.0237 63.8011 50.1192 61.1582 52.9046L63.6345 55.2379Z" fill="url(#paint12_linear_380_7704)"/>
<path d="M36.5156 20.572C39.968 22.6196 36.8966 25.4291 38.849 27.0244L41.5395 24.6196C39.5871 23.0244 42.3966 20.2625 38.9442 18.2148L36.5156 20.572Z" fill="url(#paint13_linear_380_7704)"/>
<path d="M73.0641 31.1661C73.1595 31.1423 73.207 30.5709 74.6116 29.5709C76.0166 28.5709 79.1833 30.1185 79.5878 30.3566C80.0166 30.5947 79.6595 34.5233 79.6595 34.5233C79.6595 34.5233 75.707 30.309 73.7308 31.2852C71.7545 32.2376 73.0641 31.1661 73.0641 31.1661Z" fill="url(#paint14_linear_380_7704)"/>
<path d="M73.5866 40.9525C73.5866 40.9525 73.4437 42.5002 72.7295 43.2144C71.4437 44.4765 69.3962 42.5715 66.8008 43.2619C66.8008 43.2619 67.9912 40.2383 68.1104 40.0002C68.1104 40.0002 69.1579 39.3573 70.2295 39.9764C71.3245 40.5716 72.277 40.7621 72.9437 40.405C73.6104 40.0478 73.5866 40.9525 73.5866 40.9525Z" fill="url(#paint15_linear_380_7704)"/>
<path d="M80.5629 34.1422C80.5629 34.1422 78.015 35.3088 77.6816 35.4755C77.3483 35.6422 76.5866 29.7136 78.42 29.1184C80.2771 28.5231 81.5391 28.3088 81.7296 28.285C81.92 28.2374 78.5391 28.5945 80.5629 34.1422Z" fill="#FFBF00"/>
<path d="M72.7283 43.19C73.7763 42.0946 75.2046 40.4757 75.1333 40.0233C74.8 37.1185 72.4429 30.7138 74.6096 29.5471C74.6096 29.5471 72.5854 30.9757 71.9667 31.4042C71.3475 31.8328 70.895 32.9757 70.9429 34.8566C71.0617 38.1424 73.6808 42.2137 72.7283 43.19Z" fill="#FFBF00"/>
<path d="M65.4919 19.6899C63.7539 31.9042 51.6348 43.5708 51.6348 43.5708L53.2777 46.0708C53.2777 46.0708 66.4681 32.3328 68.1585 20.0709L65.4919 19.6899Z" fill="url(#paint16_linear_380_7704)"/>
<path d="M43.1347 14.5954C42.8489 15.1192 43.6822 16.0002 45.6822 18.4288C47.6822 20.8573 52.8731 27.2859 51.3968 29.6192L52.9918 26.3335C52.9918 26.3335 53.0156 23.7145 51.4443 21.1668C48.9681 17.1668 44.2301 12.8573 44.5872 11.7859L43.1347 14.5954Z" fill="url(#paint17_linear_380_7704)"/>
<path d="M53.7536 51.7611C54.2928 51.7611 54.7298 51.324 54.7298 50.7848C54.7298 50.2457 54.2928 49.8086 53.7536 49.8086C53.2144 49.8086 52.7773 50.2457 52.7773 50.7848C52.7773 51.324 53.2144 51.7611 53.7536 51.7611Z" fill="url(#paint18_linear_380_7704)"/>
<path d="M67.3493 11.1909C67.8885 11.1909 68.3255 10.7538 68.3255 10.2147C68.3255 9.67557 67.8885 9.23853 67.3493 9.23853C66.8101 9.23853 66.373 9.67557 66.373 10.2147C66.373 10.7538 66.8101 11.1909 67.3493 11.1909Z" fill="url(#paint19_linear_380_7704)"/>
<path d="M58.1813 25.3572C58.7205 25.3572 59.1576 24.9201 59.1576 24.381C59.1576 23.8418 58.7205 23.4048 58.1813 23.4048C57.6422 23.4048 57.2051 23.8418 57.2051 24.381C57.2051 24.9201 57.6422 25.3572 58.1813 25.3572Z" fill="url(#paint20_linear_380_7704)"/>
<path d="M63.9665 43.2387C64.5056 43.2387 64.9427 42.8016 64.9427 42.2624C64.9427 41.7233 64.5056 41.2861 63.9665 41.2861C63.4273 41.2861 62.9902 41.7233 62.9902 42.2624C62.9902 42.8016 63.4273 43.2387 63.9665 43.2387Z" fill="url(#paint21_linear_380_7704)"/>
<path d="M89.0641 40.8581C89.6029 40.8581 90.04 40.4211 90.04 39.882C90.04 39.3428 89.6029 38.9058 89.0641 38.9058C88.525 38.9058 88.0879 39.3428 88.0879 39.882C88.0879 40.4211 88.525 40.8581 89.0641 40.8581Z" fill="url(#paint22_linear_380_7704)"/>
<path d="M82.8493 61.4537C83.3885 61.4537 83.8255 61.0166 83.8255 60.4775C83.8255 59.9383 83.3885 59.5012 82.8493 59.5012C82.3101 59.5012 81.873 59.9383 81.873 60.4775C81.873 61.0166 82.3101 61.4537 82.8493 61.4537Z" fill="url(#paint23_linear_380_7704)"/>
<path d="M78.7766 48.8802C79.3158 48.8802 79.7529 48.4431 79.7529 47.904C79.7529 47.3648 79.3158 46.9277 78.7766 46.9277C78.2379 46.9277 77.8008 47.3648 77.8008 47.904C77.8008 48.4431 78.2379 48.8802 78.7766 48.8802Z" fill="url(#paint24_linear_380_7704)"/>
<path d="M84.1345 22.3584C84.6736 22.3584 85.1107 21.9213 85.1107 21.3822C85.1107 20.843 84.6736 20.406 84.1345 20.406C83.5953 20.406 83.1582 20.843 83.1582 21.3822C83.1582 21.9213 83.5953 22.3584 84.1345 22.3584Z" fill="url(#paint25_linear_380_7704)"/>
<path d="M73.1813 25.5486C73.7205 25.5486 74.1576 25.1115 74.1576 24.5724C74.1576 24.0332 73.7205 23.5962 73.1813 23.5962C72.6422 23.5962 72.2051 24.0332 72.2051 24.5724C72.2051 25.1115 72.6422 25.5486 73.1813 25.5486Z" fill="url(#paint26_linear_380_7704)"/>
<path d="M64.8249 64.1194C74.777 55.9527 91.634 54.2623 91.634 54.2623L92.182 50.5002C92.182 50.5002 72.2295 52.8811 61.6582 62.0477C62.8007 62.8336 63.8486 63.524 64.8249 64.1194Z" fill="url(#paint27_linear_380_7704)"/>
<path d="M39.8496 40.595C40.5163 41.4998 41.2544 42.4046 42.0399 43.3571C44.1591 38.6902 43.7066 35.0236 43.7066 35.0236L41.1115 33.4045C41.3734 36.2855 40.4925 39.0474 39.8496 40.595Z" fill="url(#paint28_linear_380_7704)"/>
<defs>
<linearGradient id="paint0_linear_380_7704" x1="5.00608" y1="36.9297" x2="47.5003" y2="87.2877" gradientUnits="userSpaceOnUse">
<stop offset="0.2544" stop-color="#FBE07A"/>
<stop offset="1" stop-color="#FF40BF"/>
</linearGradient>
<linearGradient id="paint1_linear_380_7704" x1="28.0993" y1="40.6146" x2="63.3637" y2="75.8791" gradientUnits="userSpaceOnUse">
<stop offset="0.2544" stop-color="#9F00E8"/>
<stop offset="1" stop-color="#7000A3"/>
</linearGradient>
<linearGradient id="paint2_linear_380_7704" x1="18.3261" y1="59.8123" x2="42.7834" y2="84.2694" gradientUnits="userSpaceOnUse">
<stop offset="0.2544" stop-color="#9F00E8"/>
<stop offset="1" stop-color="#7000A3"/>
</linearGradient>
<linearGradient id="paint3_linear_380_7704" x1="10.9325" y1="75.8608" x2="26.4104" y2="91.3387" gradientUnits="userSpaceOnUse">
<stop offset="0.2544" stop-color="#9F00E8"/>
<stop offset="1" stop-color="#7000A3"/>
</linearGradient>
<radialGradient id="paint4_radial_380_7704" cx="0" cy="0" r="1" gradientUnits="userSpaceOnUse" gradientTransform="translate(28.032 53.7798) rotate(119.598) scale(24.395 7.4685)">
<stop stop-color="white" stop-opacity="0.5"/>
<stop offset="1" stop-color="white" stop-opacity="0"/>
</radialGradient>
<radialGradient id="paint5_radial_380_7704" cx="0" cy="0" r="1" gradientUnits="userSpaceOnUse" gradientTransform="translate(45.1749 75.6482) rotate(151.7) scale(38.6708 12.061)">
<stop stop-color="#440063" stop-opacity="0.75"/>
<stop offset="1" stop-color="#420061" stop-opacity="0"/>
</radialGradient>
<linearGradient id="paint6_linear_380_7704" x1="51.6016" y1="28.7293" x2="57.4458" y2="26.8628" gradientUnits="userSpaceOnUse">
<stop stop-color="#BD2719"/>
<stop offset="1" stop-color="#FF4E0D"/>
</linearGradient>
<linearGradient id="paint7_linear_380_7704" x1="57.034" y1="14.2288" x2="54.4174" y2="7.72799" gradientUnits="userSpaceOnUse">
<stop stop-color="#BD2719"/>
<stop offset="1" stop-color="#FF4E0D"/>
</linearGradient>
<linearGradient id="paint8_linear_380_7704" x1="86.1372" y1="34.0839" x2="76.3909" y2="27.8388" gradientUnits="userSpaceOnUse">
<stop stop-color="#FFCB4B"/>
<stop offset="1" stop-color="#E81CA2"/>
</linearGradient>
<linearGradient id="paint9_linear_380_7704" x1="61.1665" y1="21.3474" x2="39.3901" y2="90.0037" gradientUnits="userSpaceOnUse">
<stop offset="0.2544" stop-color="#FBE07A"/>
<stop offset="1" stop-color="#E81CA2"/>
</linearGradient>
<linearGradient id="paint10_linear_380_7704" x1="68.316" y1="37.1065" x2="34.8952" y2="60.5466" gradientUnits="userSpaceOnUse">
<stop stop-color="#FBE07A"/>
<stop offset="1" stop-color="white"/>
</linearGradient>
<linearGradient id="paint11_linear_380_7704" x1="41.4139" y1="13.2843" x2="52.2078" y2="13.1207" gradientUnits="userSpaceOnUse">
<stop stop-color="#BD2719"/>
<stop offset="1" stop-color="#FF4E0D"/>
</linearGradient>
<linearGradient id="paint12_linear_380_7704" x1="66.8228" y1="50.5062" x2="64.227" y2="55.1638" gradientUnits="userSpaceOnUse">
<stop stop-color="#FF9214"/>
<stop offset="1" stop-color="#FF4E0D"/>
</linearGradient>
<linearGradient id="paint13_linear_380_7704" x1="36.5002" y1="14.7058" x2="40.4252" y2="25.9358" gradientUnits="userSpaceOnUse">
<stop stop-color="#80DAFE"/>
<stop offset="1" stop-color="#008EE6"/>
</linearGradient>
<linearGradient id="paint14_linear_380_7704" x1="76.6116" y1="36.5269" x2="75.7128" y2="25.1987" gradientUnits="userSpaceOnUse">
<stop stop-color="#FFCB4B"/>
<stop offset="1" stop-color="#E81CA2"/>
</linearGradient>
<linearGradient id="paint15_linear_380_7704" x1="67.0962" y1="41.3022" x2="73.3554" y2="42.3161" gradientUnits="userSpaceOnUse">
<stop stop-color="#FFCB4B"/>
<stop offset="1" stop-color="#E81CA2"/>
</linearGradient>
<linearGradient id="paint16_linear_380_7704" x1="62.7952" y1="20.1294" x2="53.5098" y2="58.3416" gradientUnits="userSpaceOnUse">
<stop offset="0.2544" stop-color="#E100FF"/>
<stop offset="1" stop-color="#7000A3"/>
</linearGradient>
<linearGradient id="paint17_linear_380_7704" x1="44.5326" y1="13.8688" x2="51.4014" y2="25.3167" gradientUnits="userSpaceOnUse">
<stop stop-color="#FF9214"/>
<stop offset="1" stop-color="#FF4E0D"/>
</linearGradient>
<linearGradient id="paint18_linear_380_7704" x1="51.8865" y1="45.2903" x2="55.5932" y2="56.1932" gradientUnits="userSpaceOnUse">
<stop stop-color="#FFCB4B"/>
<stop offset="1" stop-color="#E81CA2"/>
</linearGradient>
<linearGradient id="paint19_linear_380_7704" x1="64.3714" y1="5.33236" x2="70.4768" y2="15.363" gradientUnits="userSpaceOnUse">
<stop stop-color="#FBE07A"/>
<stop offset="1" stop-color="#E81CA2"/>
</linearGradient>
<linearGradient id="paint20_linear_380_7704" x1="58.0359" y1="23.8407" x2="59.5622" y2="29.6192" gradientUnits="userSpaceOnUse">
<stop stop-color="#80DAFE"/>
<stop offset="1" stop-color="#008EE6"/>
</linearGradient>
<linearGradient id="paint21_linear_380_7704" x1="63.3086" y1="40.4085" x2="64.2402" y2="43.0741" gradientUnits="userSpaceOnUse">
<stop stop-color="#80DAFE"/>
<stop offset="1" stop-color="#008EE6"/>
</linearGradient>
<linearGradient id="paint22_linear_380_7704" x1="89.7721" y1="37.6031" x2="88.0275" y2="43.1637" gradientUnits="userSpaceOnUse">
<stop stop-color="#FFCB4B"/>
<stop offset="1" stop-color="#E81CA2"/>
</linearGradient>
<linearGradient id="paint23_linear_380_7704" x1="82.5618" y1="54.24" x2="83.1068" y2="66.1241" gradientUnits="userSpaceOnUse">
<stop stop-color="#FFCB4B"/>
<stop offset="1" stop-color="#E81CA2"/>
</linearGradient>
<linearGradient id="paint24_linear_380_7704" x1="78.1374" y1="46.059" x2="79.0687" y2="48.7244" gradientUnits="userSpaceOnUse">
<stop offset="0.2544" stop-color="#9F00E8"/>
<stop offset="1" stop-color="#7000A3"/>
</linearGradient>
<linearGradient id="paint25_linear_380_7704" x1="86.0294" y1="18.1291" x2="82.4315" y2="24.3438" gradientUnits="userSpaceOnUse">
<stop stop-color="#80DAFE"/>
<stop offset="1" stop-color="#008EE6"/>
</linearGradient>
<linearGradient id="paint26_linear_380_7704" x1="72.9297" y1="23.1872" x2="74.1288" y2="29.838" gradientUnits="userSpaceOnUse">
<stop stop-color="#FF9214"/>
<stop offset="1" stop-color="#FF4E0D"/>
</linearGradient>
<linearGradient id="paint27_linear_380_7704" x1="54.9107" y1="56.8165" x2="89.6724" y2="57.5307" gradientUnits="userSpaceOnUse">
<stop stop-color="#80DAFE"/>
<stop offset="1" stop-color="#008EE6"/>
</linearGradient>
<linearGradient id="paint28_linear_380_7704" x1="35.7083" y1="52.9496" x2="44.0416" y2="32.2354" gradientUnits="userSpaceOnUse">
<stop stop-color="#FBE07A"/>
<stop offset="1" stop-color="#E81CA2"/>
</linearGradient>
</defs>
</svg>
