<?xml version="1.0" encoding="iso-8859-1"?>
<!-- Uploaded to: SVG Repo, www.svgrepo.com, Generator: SVG Repo Mixer Tools -->
<svg version="1.1" id="Layer_1" xmlns="http://www.w3.org/2000/svg" xmlns:xlink="http://www.w3.org/1999/xlink" 
	 viewBox="0 0 512 512" xml:space="preserve">
<rect x="16.988" y="174.117" style="fill:#006DF0;" width="357.302" height="237.066"/>
<rect x="195.637" y="174.117" style="fill:#0052B4;" width="178.651" height="237.066"/>
<path style="fill:#93C7EF;" d="M0,398.518v23.017c0,25.382,20.65,46.032,46.032,46.032h299.209c25.383,0,46.032-20.65,46.032-46.032
	v-23.017H0z"/>
<path style="fill:#78B9EB;" d="M195.663,398.519v69.048h149.578c25.383,0,46.032-20.65,46.032-46.032v-23.016H195.663z"/>
<g>
	<polygon style="fill:#FFFFFF;" points="131.645,248.958 87.016,293.586 131.645,338.216 156.056,313.804 135.841,293.586 
		156.056,273.37 	"/>
	<polygon style="fill:#FFFFFF;" points="226.939,228.695 193.155,221.583 165.104,354.83 200.384,354.83 	"/>
</g>
<path style="fill:#006DF0;" d="M499.401,296.063L361.066,157.728c-8.125-8.126-18.962-12.599-30.516-12.599
	c-11.555,0-22.392,4.474-30.516,12.598c-8.125,8.125-12.598,18.962-12.598,30.516s4.474,22.391,12.598,30.516l138.337,138.336
	c8.125,8.124,18.962,12.597,30.516,12.597c11.554,0,22.391-4.474,30.515-12.598c8.125-8.125,12.598-18.962,12.598-30.516
	C512,315.024,507.526,304.186,499.401,296.063z"/>
<circle style="fill:#FFFFFF;" cx="330.592" cy="188.283" r="126.589"/>
<g>
	<path style="fill:#78B9EB;" d="M330.593,332.067c-36.837,0-73.675-14.021-101.719-42.065l0,0
		c-27.169-27.169-42.132-63.294-42.132-101.718s14.963-74.547,42.132-101.717s63.294-42.133,101.719-42.133
		s74.548,14.964,101.717,42.133c27.169,27.169,42.133,63.293,42.133,101.717s-14.964,74.548-42.133,101.718
		C404.266,318.044,367.429,332.067,330.593,332.067z M253.286,265.59c42.627,42.625,111.984,42.625,154.611,0
		c20.649-20.649,32.021-48.104,32.021-77.306c0-29.202-11.372-56.655-32.021-77.305c-20.649-20.65-48.104-32.021-77.305-32.021
		c-29.203,0-56.656,11.372-77.305,32.021s-32.021,48.104-32.021,77.305C221.266,217.486,232.637,244.941,253.286,265.59
		L253.286,265.59z"/>
	<path style="fill:#78B9EB;" d="M432.309,86.567c-27.168-27.171-63.293-42.134-101.716-42.134v34.524
		c29.202,0,56.655,11.372,77.305,32.021c20.65,20.649,32.021,48.104,32.021,77.305c0,29.203-11.372,56.656-32.021,77.306
		c-21.314,21.313-49.31,31.968-77.305,31.968v34.508c36.837,0,73.674-14.023,101.717-42.065
		c27.169-27.169,42.133-63.294,42.133-101.718S459.48,113.736,432.309,86.567z"/>
</g>
<path style="fill:#0052B4;" d="M316.577,181.465l-34.524-0.137l0.142-35.691c0.138-25.366,20.797-45.885,46.106-45.885
	c0.085,0,0.17,0,0.257,0c25.426,0.139,45.998,20.937,45.86,46.362v33.369h-34.524V146.02c0.017-3.158-1.181-6.066-3.374-8.281
	c-2.191-2.216-5.087-3.446-8.15-3.463c-0.02,0-0.04,0-0.061,0c-6.255,0-11.555,5.263-11.589,11.524L316.577,181.465z"/>
<polygon style="fill:#003778;" points="272.375,174.112 271.788,248.84 383.562,249.448 384.18,174.633 "/>
</svg>